<svg width="81" height="66" viewBox="0 0 81 66" fill="none" xmlns="http://www.w3.org/2000/svg">
<path d="M20.0399 1.34724C13.5919 2.42764 12.0419 2.63205 9.18991 2.71964L6.55491 2.77805L6.46191 30.3428C6.39991 52.3304 6.46191 57.8492 6.77191 57.7324C20.1639 52.6224 22.6749 51.8048 26.2089 51.5128C29.8979 51.1916 33.7419 52.3888 36.8109 54.754L38.1749 55.8636L38.2679 30.6348L38.3299 5.43525L37.0279 4.32565C35.2609 2.89484 32.6569 1.58084 30.4249 1.02604C27.9139 0.412846 24.9689 0.500443 20.0399 1.34724Z" fill="black"/>
<path d="M49.18 1.08447C46.917 1.66847 44.995 2.66127 43.073 4.23807L41.74 5.31847V30.5473V55.8053L43.073 54.8125C49.242 50.1113 54.14 50.2573 68.245 55.5425C69.95 56.1849 71.996 56.9733 72.833 57.2653L74.29 57.8201V30.2553V2.71967L70.508 2.54447C68.4 2.45687 64.68 2.01887 62.2 1.61007C56.124 0.588066 51.815 0.412868 49.18 1.08447Z" fill="black"/>
<path d="M1.53295 2.92406C1.16095 3.07006 0.726951 3.44966 0.540951 3.77086C0.292951 4.15046 0.199951 13.1441 0.199951 32.5037C0.199951 60.5357 0.199951 60.6525 0.850951 61.4409L1.47095 62.2001H16.289H31.107L30.983 62.8717C30.89 63.2513 31.107 63.8353 31.448 64.2441L32.068 64.9741L40.097 65.0617C47.878 65.1493 48.157 65.1201 48.963 64.5361C49.521 64.0981 49.8 63.6309 49.8 63.0469V62.2001H64.525C78.847 62.2001 79.281 62.1709 79.87 61.6161C80.49 61.0321 80.49 60.6525 80.49 32.4745C80.49 5.28926 80.459 3.85846 79.932 3.42046C79.622 3.15766 79.033 2.89486 78.599 2.86566L77.855 2.77806L77.762 31.0145L77.7 59.2801H40.345H2.98995V30.9561C2.98995 8.47206 2.89695 2.63206 2.61795 2.66126C2.40095 2.66126 1.90495 2.77806 1.53295 2.92406Z" fill="black"/>
</svg>
