<svg width="700" height="700" viewBox="0 0 700 700" fill="none" xmlns="http://www.w3.org/2000/svg">
<path d="M577.752 353.416C451.15 280.322 246.54 280.322 120.75 353.416C-5.04001 426.51 -4.36802 545.048 122.234 618.142C248.836 691.236 453.46 691.236 579.25 618.142C705.04 545.048 704.368 426.524 577.752 353.416Z" fill="#F5F5F5"/>
<path d="M318.752 589.792C296.352 576.87 260.176 576.87 237.93 589.792C215.684 602.714 215.796 623.686 238.196 636.608C260.596 649.53 296.772 649.544 319.018 636.608C341.264 623.672 341.152 602.728 318.752 589.792Z" fill="#E6E6E6"/>
<path d="M455.154 598.094C432.824 585.214 396.76 585.214 374.584 598.094C352.408 610.974 352.534 631.876 374.85 644.756C397.166 657.636 433.244 657.65 455.406 644.756C477.568 631.862 477.47 610.988 455.154 598.094Z" fill="#E6E6E6"/>
<path d="M558.768 494.634C539.168 483.322 507.514 483.322 488.054 494.634C468.594 505.946 468.692 524.286 488.278 535.584C507.864 546.882 539.532 546.896 558.992 535.584C578.452 524.272 578.354 505.946 558.768 494.634Z" fill="#E6E6E6"/>
<path d="M485.954 416.164C465.108 404.124 431.424 404.124 410.718 416.164C390.012 428.204 390.11 447.706 410.956 459.746C431.802 471.786 465.486 471.786 486.192 459.746C506.898 447.706 506.8 428.204 485.954 416.164Z" fill="#E6E6E6"/>
<path d="M447.44 310.408C447.44 306.824 446.166 304.29 444.136 303.072H444.052L431.998 296.072C431.74 295.897 431.463 295.751 431.172 295.638C430.576 295.386 429.942 295.234 429.296 295.19C428.9 295.155 428.502 295.155 428.106 295.19H427.714L426.832 295.358L426.384 295.484C426.065 295.572 425.752 295.68 425.446 295.806L425.026 295.974C424.544 296.176 424.077 296.41 423.626 296.674L103.488 481.012C103.063 481.255 102.651 481.521 102.256 481.81L101.864 482.09L101.038 482.734L100.618 483.098L99.862 483.784L99.456 484.19L98.742 484.96L98.364 485.366L97.664 486.22C97.552 486.36 97.454 486.5 97.342 486.626C97.104 486.948 96.866 487.27 96.642 487.606L96.39 487.97C96.138 488.334 95.9 488.712 95.662 489.104C95.6056 489.185 95.5542 489.269 95.508 489.356C95.0514 490.122 94.6355 490.912 94.262 491.722C94.262 491.862 94.136 491.988 94.066 492.128L93.73 492.954C93.646 493.136 93.576 493.304 93.506 493.486C93.436 493.668 93.324 493.99 93.226 494.256C93.128 494.522 93.1 494.662 93.03 494.858C92.9471 495.092 92.877 495.33 92.82 495.572L92.652 496.258L92.4 497C92.4 497.252 92.302 497.504 92.26 497.756C92.26 497.952 92.176 498.148 92.148 498.344C92.148 498.624 92.148 498.918 92.05 499.198C92.05 499.352 92.05 499.52 92.05 499.674C92.05 500.108 92.05 500.556 92.05 500.976L92.624 506.478C92.5911 507.989 92.8724 509.491 93.45 510.888C93.6984 511.461 94.0234 511.998 94.416 512.484C94.781 512.936 95.2102 513.332 95.69 513.66C95.8949 513.798 96.1103 513.919 96.334 514.024L108.22 520.954L108.402 521.052H108.486C110.558 522.144 113.372 521.934 116.48 520.156L218.806 461.216L272.006 493.15C272.692 493.542 273.406 493.906 274.092 494.256L274.792 494.592C275.268 494.816 275.758 495.04 276.192 495.236L277.032 495.572C277.48 495.754 277.942 495.922 278.432 496.076L279.328 496.384L280.728 496.79L281.638 497.028C282.1 497.154 282.562 497.252 283.038 497.35L283.906 497.532C284.41 497.63 284.928 497.714 285.446 497.784L286.188 497.896C286.944 497.994 287.714 498.078 288.484 498.134C289.254 498.19 290.108 498.204 290.92 498.204C291.732 498.204 292.544 498.204 293.37 498.134C294.996 498.033 296.614 497.827 298.214 497.518C299.138 497.336 300.048 497.112 300.944 496.874L301.784 496.622C302.428 496.426 303.044 496.23 303.674 496.006L304.598 495.656C305.214 495.418 305.83 495.166 306.432 494.9L307.258 494.536C308.112 494.116 308.966 493.682 309.806 493.206L350.7 469.812C353.455 468.205 355.644 465.782 356.963 462.878C358.282 459.974 358.667 456.732 358.064 453.6C357.677 451.46 356.835 449.428 355.593 447.643C354.351 445.858 352.74 444.361 350.868 443.254L327.488 429.254L317.562 423.304C317.074 422.999 316.606 422.662 316.162 422.296C313.89 420.497 312.26 418.012 311.514 415.212C311.217 414.083 311.067 412.921 311.066 411.754V408.1L436.576 335.818C442.932 332.15 448.084 323.218 448.056 315.924L447.44 310.408Z" fill="#E6E6E6"/>
<path d="M606.62 456.288L600.124 450.968C599.732 440.72 599.326 429.968 601.034 419.846C602.742 409.724 606.704 399.742 613.928 392.49C616.952 389.452 620.704 386.89 624.974 386.372C629.244 385.854 633.99 388.024 635.46 392.056C636.93 396.088 634.676 400.862 632.212 404.656C626.948 412.65 620.662 419.944 615.51 428.008C610.104 436.485 607.037 446.242 606.62 456.288Z" fill="#FF725E"/>
<path d="M606.62 457.688L613.116 463.022C617.918 452.886 624.54 443.506 633.668 437.01C636.931 434.992 639.98 432.647 642.768 430.01C645.4 427.21 647.22 423.332 646.464 419.566C645.484 414.75 640.36 411.558 635.432 411.53C630.504 411.502 625.898 413.994 622.09 417.13C610.4 426.65 603.666 442.862 606.62 457.688Z" fill="#FF725E"/>
<path opacity="0.3" d="M606.62 457.688L613.116 463.022C617.918 452.886 624.54 443.506 633.668 437.01C636.931 434.992 639.98 432.647 642.768 430.01C645.4 427.21 647.22 423.332 646.464 419.566C645.484 414.75 640.36 411.558 635.432 411.53C630.504 411.502 625.898 413.994 622.09 417.13C610.4 426.65 603.666 442.862 606.62 457.688Z" fill="black"/>
<path d="M602.952 453.852C602.803 453.845 602.663 453.782 602.559 453.675C602.455 453.569 602.395 453.427 602.392 453.278C602.658 438.102 606.074 410.06 625.912 392.826C626.025 392.728 626.173 392.678 626.323 392.689C626.472 392.699 626.612 392.769 626.71 392.882C626.808 392.995 626.858 393.143 626.847 393.293C626.837 393.442 626.767 393.582 626.654 393.68C618.254 400.96 604.128 418.376 603.526 453.292C603.519 453.441 603.456 453.581 603.349 453.685C603.243 453.789 603.101 453.849 602.952 453.852Z" fill="white"/>
<path d="M609.756 460.838C609.682 460.831 609.611 460.81 609.545 460.775C609.48 460.74 609.422 460.693 609.375 460.635C609.329 460.578 609.294 460.512 609.272 460.441C609.251 460.37 609.244 460.296 609.252 460.222C610.568 446.572 616.532 427.784 637.35 415.744C637.48 415.67 637.634 415.65 637.778 415.69C637.923 415.729 638.046 415.824 638.12 415.954C638.194 416.084 638.214 416.238 638.174 416.383C638.135 416.527 638.04 416.65 637.91 416.724C617.498 428.512 611.66 446.95 610.358 460.32C610.353 460.394 610.333 460.466 610.3 460.531C610.266 460.597 610.221 460.656 610.165 460.704C610.109 460.752 610.044 460.789 609.974 460.812C609.904 460.835 609.83 460.844 609.756 460.838Z" fill="white"/>
<path d="M69.286 432.418C65.492 429.226 61.278 426.524 57.694 423.094C55.258 420.756 53.004 417.746 53.172 414.372C53.3226 412.802 53.912 411.307 54.8726 410.057C55.8332 408.806 57.1263 407.852 58.604 407.302C61.593 406.242 64.8681 406.321 67.802 407.526C70.6981 408.745 73.3676 410.444 75.698 412.552C88.8794 423.839 97.1988 439.776 98.924 457.044C99.2745 458.994 99.0457 461.004 98.266 462.826C97.7403 463.743 96.9656 464.493 96.0316 464.989C95.0976 465.484 94.0423 465.705 92.988 465.626C87.584 465.108 86.912 458.08 85.274 454.188C83.0303 448.841 79.9957 443.862 76.272 439.418C74.1505 436.887 71.813 434.544 69.286 432.418Z" fill="#FF725E"/>
<path d="M93.94 460.11C93.8394 460.107 93.7426 460.071 93.6642 460.008C93.5859 459.945 93.5303 459.858 93.506 459.76C91.532 451.64 83.356 424.186 60.956 412.16C60.9036 412.132 60.8573 412.093 60.8198 412.047C60.7823 412 60.7543 411.947 60.7374 411.89C60.7205 411.833 60.7151 411.773 60.7213 411.713C60.7276 411.654 60.7455 411.596 60.774 411.544C60.8025 411.492 60.841 411.445 60.8874 411.408C60.9338 411.37 60.9871 411.342 61.0443 411.325C61.1015 411.309 61.1615 411.303 61.2208 411.309C61.2801 411.316 61.3376 411.334 61.39 411.362C84.126 423.612 92.4 451.388 94.388 459.606C94.4025 459.664 94.4053 459.724 94.3962 459.783C94.3871 459.842 94.3663 459.899 94.335 459.95C94.3037 460.001 94.2625 460.045 94.2139 460.079C94.1653 460.114 94.1103 460.139 94.052 460.152L93.94 460.11Z" fill="#EBEBEB"/>
<path d="M98 471.478C97.9497 473.352 97.5207 475.196 96.7387 476.899C95.9567 478.603 94.838 480.13 93.45 481.39C90.7775 483.367 87.6068 484.559 84.294 484.834C80.9355 485.107 77.5565 484.98 74.228 484.456C72.576 484.232 70.714 483.868 70.182 481.992C70.0526 481.495 70.0357 480.976 70.1325 480.473C70.2294 479.969 70.4377 479.493 70.742 479.08C70.9962 478.709 71.272 478.354 71.568 478.016C71.7017 477.863 71.7862 477.674 71.8104 477.472C71.8346 477.27 71.7973 477.066 71.7035 476.886C71.6097 476.706 71.4637 476.559 71.2847 476.463C71.1056 476.367 70.9018 476.328 70.7 476.35C69.7713 476.47 68.8364 476.536 67.9 476.546C65.7066 476.625 63.5318 476.118 61.6 475.076C60.189 474.242 59.0097 473.068 58.17 471.66C57.7502 471.103 57.4926 470.441 57.4259 469.746C57.3592 469.052 57.4859 468.353 57.792 467.726C58.2974 467.087 58.9715 466.602 59.738 466.326C60.396 466.046 61.054 465.78 61.726 465.542C61.9145 465.47 62.0749 465.34 62.1836 465.17C62.2922 465.001 62.3432 464.8 62.3291 464.599C62.3149 464.398 62.2364 464.207 62.1051 464.054C61.9737 463.901 61.7966 463.794 61.6 463.75L58.45 463.106C57.5594 463.002 56.7082 462.68 55.972 462.168C55.4666 461.662 55.0791 461.051 54.8371 460.378C54.5951 459.706 54.5046 458.988 54.572 458.276C54.572 456.386 54.852 454.51 54.922 452.676C55.0807 450.764 54.7732 448.843 54.026 447.076C59.3575 445.391 64.9479 444.675 70.532 444.962C72.1989 444.973 73.8447 445.336 75.362 446.026C76.3399 446.603 77.1542 447.42 77.7275 448.4C78.3008 449.38 78.6143 450.491 78.638 451.626C78.6457 451.725 78.6885 451.819 78.7587 451.889C78.8289 451.96 78.922 452.003 79.0213 452.012C79.1205 452.02 79.2196 451.993 79.3007 451.935C79.3818 451.877 79.4397 451.793 79.464 451.696L80.654 447.902C80.8288 447.356 81.2064 446.897 81.7091 446.621C82.2118 446.345 82.8013 446.272 83.356 446.418C85.1486 446.907 86.8213 447.76 88.27 448.924C89.0646 449.534 89.7291 450.296 90.2244 451.166C90.7197 452.037 91.0358 452.998 91.154 453.992C91.4594 456.734 91.5343 459.497 91.378 462.252C91.3648 462.408 91.4015 462.565 91.4828 462.699C91.5641 462.833 91.6858 462.938 91.8304 462.998C91.9751 463.059 92.1352 463.072 92.2878 463.036C92.4404 463 92.5777 462.917 92.68 462.798H92.764C93.186 462.311 93.7758 462.001 94.416 461.93C96.096 461.818 96.838 463.4 97.216 464.8C97.7467 466.986 98.0099 469.228 98 471.478Z" fill="#FF725E"/>
<path opacity="0.2" d="M98 471.478C97.9497 473.352 97.5207 475.196 96.7387 476.899C95.9567 478.603 94.838 480.13 93.45 481.39C90.7775 483.367 87.6068 484.559 84.294 484.834C80.9355 485.107 77.5565 484.98 74.228 484.456C72.576 484.232 70.714 483.868 70.182 481.992C70.0526 481.495 70.0357 480.976 70.1325 480.473C70.2294 479.969 70.4377 479.493 70.742 479.08C70.9962 478.709 71.272 478.354 71.568 478.016C71.7017 477.863 71.7862 477.674 71.8104 477.472C71.8346 477.27 71.7973 477.066 71.7035 476.886C71.6097 476.706 71.4637 476.559 71.2847 476.463C71.1056 476.367 70.9018 476.328 70.7 476.35C69.7713 476.47 68.8364 476.536 67.9 476.546C65.7066 476.625 63.5318 476.118 61.6 475.076C60.189 474.242 59.0097 473.068 58.17 471.66C57.7502 471.103 57.4926 470.441 57.4259 469.746C57.3592 469.052 57.4859 468.353 57.792 467.726C58.2974 467.087 58.9715 466.602 59.738 466.326C60.396 466.046 61.054 465.78 61.726 465.542C61.9145 465.47 62.0749 465.34 62.1836 465.17C62.2922 465.001 62.3432 464.8 62.3291 464.599C62.3149 464.398 62.2364 464.207 62.1051 464.054C61.9737 463.901 61.7966 463.794 61.6 463.75L58.45 463.106C57.5594 463.002 56.7082 462.68 55.972 462.168C55.4666 461.662 55.0791 461.051 54.8371 460.378C54.5951 459.706 54.5046 458.988 54.572 458.276C54.572 456.386 54.852 454.51 54.922 452.676C55.0807 450.764 54.7732 448.843 54.026 447.076C59.3575 445.391 64.9479 444.675 70.532 444.962C72.1989 444.973 73.8447 445.336 75.362 446.026C76.3399 446.603 77.1542 447.42 77.7275 448.4C78.3008 449.38 78.6143 450.491 78.638 451.626C78.6457 451.725 78.6885 451.819 78.7587 451.889C78.8289 451.96 78.922 452.003 79.0213 452.012C79.1205 452.02 79.2196 451.993 79.3007 451.935C79.3818 451.877 79.4397 451.793 79.464 451.696L80.654 447.902C80.8288 447.356 81.2064 446.897 81.7091 446.621C82.2118 446.345 82.8013 446.272 83.356 446.418C85.1486 446.907 86.8213 447.76 88.27 448.924C89.0646 449.534 89.7291 450.296 90.2244 451.166C90.7197 452.037 91.0358 452.998 91.154 453.992C91.4594 456.734 91.5343 459.497 91.378 462.252C91.3648 462.408 91.4015 462.565 91.4828 462.699C91.5641 462.833 91.6858 462.938 91.8304 462.998C91.9751 463.059 92.1352 463.072 92.2878 463.036C92.4404 463 92.5777 462.917 92.68 462.798H92.764C93.186 462.311 93.7758 462.001 94.416 461.93C96.096 461.818 96.838 463.4 97.216 464.8C97.7467 466.986 98.0099 469.228 98 471.478Z" fill="black"/>
<path d="M91 481.404C89.1188 477.236 86.8154 473.272 84.126 469.574C84.0945 469.446 84.0141 469.335 83.902 469.266C83.762 469.07 83.608 468.874 83.468 468.664C82.9755 463.488 83.4503 458.266 84.868 453.264C84.8873 453.208 84.8954 453.149 84.8917 453.089C84.8881 453.03 84.8729 452.972 84.8469 452.919C84.8209 452.866 84.7846 452.818 84.7402 452.779C84.6958 452.739 84.6441 452.709 84.588 452.69C84.5319 452.671 84.4726 452.663 84.4134 452.666C84.3542 452.67 84.2963 452.685 84.243 452.711C84.1897 452.737 84.142 452.773 84.1027 452.818C84.0634 452.862 84.0333 452.914 84.014 452.97C82.6501 457.624 82.1007 462.479 82.39 467.32C76.35 459.218 68.3804 452.755 59.206 448.518C59.0945 448.471 58.9689 448.469 58.8563 448.514C58.7438 448.558 58.6531 448.645 58.604 448.756C58.5569 448.868 58.5554 448.993 58.5999 449.106C58.6444 449.218 58.7314 449.309 58.842 449.358C68.2272 453.71 76.3325 460.408 82.376 468.804C77.0854 467.569 71.5498 467.9 66.444 469.756C66.3497 469.799 66.2726 469.872 66.225 469.964C66.1773 470.056 66.162 470.161 66.1813 470.263C66.2007 470.365 66.2537 470.457 66.3318 470.525C66.4099 470.593 66.5086 470.633 66.612 470.638H66.78C72.0808 468.723 77.8483 468.518 83.272 470.05C85.9394 473.713 88.224 477.639 90.09 481.768C90.1253 481.85 90.1838 481.921 90.2584 481.97C90.3329 482.02 90.4204 482.047 90.51 482.048H90.678C90.7455 482.033 90.8089 482.004 90.8634 481.961C90.918 481.919 90.9623 481.865 90.9932 481.803C91.0241 481.741 91.0408 481.673 91.0419 481.604C91.0431 481.535 91.0288 481.467 91 481.404Z" fill="#EBEBEB"/>
<path opacity="0.2" d="M358.064 439.026C357.677 436.886 356.835 434.854 355.593 433.069C354.351 431.284 352.74 429.787 350.868 428.68L317.562 408.702C315.566 407.504 313.914 405.809 312.768 403.782C311.622 401.755 311.021 399.466 311.024 397.138V381.276L235.732 424.802L229.446 428.4V446.264C229.443 448.068 229.804 449.855 230.506 451.517C231.208 453.179 232.238 454.683 233.534 455.938C233.898 456.288 234.29 456.624 234.696 456.946C235.17 457.314 235.671 457.646 236.194 457.94L271.964 478.562C276.985 481.47 282.61 483.181 288.4 483.56C289.212 483.616 290.024 483.644 290.836 483.644C291.648 483.644 292.46 483.644 293.286 483.644C299.071 483.287 304.695 481.601 309.722 478.716L350.616 455.308C353.409 453.718 355.63 451.291 356.967 448.369C358.304 445.447 358.687 442.178 358.064 439.026Z" fill="#455A64"/>
<path d="M358.064 439.026C357.677 436.886 356.835 434.854 355.593 433.069C354.351 431.284 352.74 429.787 350.868 428.68L317.562 408.702C315.566 407.504 313.914 405.809 312.768 403.782C311.622 401.755 311.021 399.466 311.024 397.138V381.276L235.732 424.802L229.446 428.4V446.264C229.444 448.632 230.067 450.958 231.252 453.008C232.436 455.059 234.141 456.76 236.194 457.94L271.964 478.562C277.715 481.867 284.231 483.607 290.864 483.607C297.497 483.607 304.014 481.867 309.764 478.562L350.658 455.154C353.414 453.567 355.608 451.162 356.935 448.272C358.262 445.382 358.657 442.15 358.064 439.026Z" fill="#455A64"/>
<path d="M350.602 449.54L310.002 472.766C304.169 476.113 297.561 477.873 290.836 477.873C284.111 477.873 277.503 476.113 271.67 472.766L241.542 455.392C239.785 454.384 238.325 452.931 237.31 451.178C236.295 449.425 235.76 447.435 235.76 445.41V424.858L229.446 428.4V446.264C229.444 448.632 230.067 450.958 231.252 453.009C232.436 455.059 234.141 456.76 236.194 457.94L271.964 478.562C277.715 481.867 284.231 483.607 290.864 483.607C297.497 483.607 304.014 481.867 309.764 478.562L350.658 455.154C353.44 453.57 355.656 451.155 356.994 448.247C358.333 445.339 358.726 442.085 358.12 438.942C357.729 441.155 356.851 443.253 355.551 445.085C354.251 446.918 352.561 448.439 350.602 449.54Z" fill="#37474F"/>
<path d="M241.542 455.336C239.785 454.328 238.325 452.875 237.31 451.122C236.295 449.369 235.76 447.379 235.76 445.354V424.802L229.446 428.4V446.264C229.444 448.632 230.067 450.958 231.252 453.009C232.436 455.059 234.141 456.76 236.194 457.94L248.878 465.262V459.55L241.542 455.336Z" fill="#263238"/>
<path d="M241.542 455.336L248.878 459.536L327.488 414.61L317.562 408.66C315.566 407.462 313.914 405.767 312.768 403.74C311.622 401.713 311.021 399.424 311.024 397.096V381.276L235.732 424.802V445.354C235.735 447.382 236.274 449.374 237.294 451.127C238.314 452.88 239.78 454.332 241.542 455.336Z" fill="#37474F"/>
<path d="M447.44 43.8479C447.44 40.2499 446.166 37.7159 444.136 36.4979H444.052L431.998 29.4979C431.736 29.3331 431.46 29.1925 431.172 29.0779C430.576 28.8259 429.942 28.6745 429.296 28.6299C427.293 28.5678 425.317 29.1093 423.626 30.1839L103.488 214.452C103.068 214.69 102.662 214.956 102.256 215.236L101.864 215.53L101.038 216.174L100.618 216.538L99.862 217.224L99.456 217.63L98.742 218.386L98.364 218.806C98.126 219.086 97.888 219.366 97.664 219.66L97.342 220.066C97.104 220.388 96.866 220.71 96.642 221.046L96.39 221.396C96.138 221.774 95.9 222.152 95.662 222.544C95.6056 222.625 95.5542 222.709 95.508 222.796C95.0514 223.562 94.6355 224.352 94.262 225.162L94.066 225.568L93.73 226.394C93.646 226.562 93.576 226.744 93.506 226.926L93.226 227.682L93.03 228.298C92.946 228.536 92.876 228.774 92.806 229.012L92.638 229.698L92.47 230.356C92.47 230.608 92.372 230.86 92.33 231.098C92.288 231.336 92.246 231.504 92.218 231.686C92.19 231.868 92.218 232.274 92.12 232.554C92.022 232.834 92.12 232.862 92.12 233.03C92.12 233.464 92.12 233.898 92.12 234.332L92.694 491.848C92.6611 493.359 92.9424 494.861 93.52 496.258C93.979 497.389 94.7573 498.362 95.76 499.058C95.9681 499.191 96.183 499.312 96.404 499.422L108.29 506.352L108.472 506.45H108.556C110.628 507.542 113.442 507.332 116.55 505.54L436.534 321.258C442.89 317.59 448.042 308.658 448.014 301.364L447.44 43.8479ZM115.64 241.458C115.918 238.637 117.046 235.966 118.874 233.8C117.068 235.96 115.956 238.614 115.682 241.416L115.64 241.458ZM427.84 54.9779L121.38 231.378L436.086 50.2739L427.938 54.9779H427.84ZM115.64 243.222L116.2 483.896V492.576L115.64 243.222Z" fill="#37474F"/>
<path d="M447.44 43.848C447.44 40.25 446.166 37.716 444.136 36.498H444.052L431.998 29.498C429.898 28.098 426.93 28.28 423.598 30.184L103.488 214.452C97.118 218.134 91.98 227.052 92.008 234.346L92.582 491.862C92.582 495.306 93.758 497.77 95.648 499.044C95.8561 499.177 96.0711 499.298 96.292 499.408L108.178 506.338L108.36 506.436H108.444C110.516 507.528 113.33 507.318 116.438 505.526L436.534 321.258C442.89 317.59 448.042 308.658 448.014 301.364L447.44 43.848ZM428.484 297.416C428.269 299.398 427.642 301.314 426.644 303.04C425.646 304.766 424.299 306.265 422.688 307.44L116.2 483.896V492.576L115.64 241.458C115.854 239.477 116.48 237.563 117.478 235.839C118.476 234.115 119.825 232.619 121.436 231.448L436.086 50.274L427.938 54.978L428.484 297.416Z" fill="#37474F"/>
<path d="M428.484 297.416L427.938 54.9779L121.478 231.378C119.867 232.549 118.518 234.045 117.52 235.769C116.522 237.493 115.896 239.407 115.682 241.388L116.2 483.896L422.674 307.496C424.294 306.316 425.648 304.809 426.649 303.072C427.649 301.336 428.275 299.409 428.484 297.416Z" fill="#FF725E"/>
<path opacity="0.3" d="M428.484 297.416L427.938 54.9779L121.478 231.378C119.867 232.549 118.518 234.045 117.52 235.769C116.522 237.493 115.896 239.407 115.682 241.388L116.2 483.896L422.674 307.496C424.294 306.316 425.648 304.809 426.649 303.072C427.649 301.336 428.275 299.409 428.484 297.416Z" fill="black"/>
<path opacity="0.2" d="M428.484 297.416L427.938 54.9779L121.478 231.378C119.867 232.549 118.518 234.045 117.52 235.769C116.522 237.493 115.896 239.407 115.682 241.388L116.2 483.896L422.674 307.496C424.294 306.316 425.648 304.809 426.649 303.072C427.649 301.336 428.275 299.409 428.484 297.416Z" fill="white"/>
<path d="M431.942 29.4C429.842 28 426.874 28.182 423.542 30.086L103.488 214.452C99.703 216.842 96.6548 220.234 94.682 224.252L107.002 231.364C108.966 227.344 112.01 223.951 115.794 221.564L435.876 37.268C439.04 35.434 441.91 35.252 443.996 36.428L431.942 29.4Z" fill="#455A64"/>
<path d="M92.0079 234.346L92.5819 491.862C92.5819 495.306 93.7579 497.77 95.6479 499.044C95.856 499.177 96.071 499.298 96.2919 499.408L108.178 506.338C106.134 505.12 104.874 502.572 104.874 498.988L104.3 241.486C104.402 237.952 105.327 234.491 107.002 231.378L94.6819 224.266C93.0158 227.371 92.1001 230.823 92.0079 234.346Z" fill="#263238"/>
<path d="M436.086 50.2739L427.938 54.9779L428.484 297.416C428.269 299.398 427.642 301.314 426.644 303.04C425.646 304.766 424.299 306.265 422.688 307.44L116.2 483.896V492.576L430.85 311.402C432.461 310.231 433.81 308.735 434.808 307.011C435.806 305.287 436.432 303.373 436.646 301.392L436.086 50.2739Z" fill="#263238"/>
<path d="M149.646 286.258L149.59 267.666L137.088 260.456L137.144 278.628V279.048L149.646 286.258Z" fill="#E6E6E6"/>
<path d="M150.248 501.69L149.646 286.258L137.2 279.048L137.802 494.06C137.737 494.757 137.854 495.458 138.141 496.096C138.428 496.734 138.876 497.287 139.44 497.7L151.802 505.232C151.272 504.815 150.852 504.274 150.581 503.656C150.31 503.038 150.196 502.363 150.248 501.69Z" fill="#EBEBEB"/>
<path d="M156.016 504.966C155.661 505.176 155.286 505.35 154.896 505.484C155.286 505.35 155.661 505.176 156.016 504.966Z" fill="#455A64"/>
<path d="M149.618 267.624V256.914C149.72 254.925 150.292 252.988 151.287 251.262C152.283 249.537 153.673 248.072 155.344 246.988L479.934 59.57C480.508 59.1541 481.182 58.8964 481.887 58.8227C482.592 58.749 483.304 58.8619 483.952 59.15L471.576 51.576C470.913 51.2381 470.168 51.0919 469.426 51.1537C468.684 51.2156 467.974 51.483 467.376 51.926L142.8 239.4C141.127 240.486 139.736 241.953 138.74 243.681C137.745 245.409 137.174 247.348 137.074 249.34V260.05V260.47L149.576 267.68L149.618 267.624Z" fill="#FF725E"/>
<path opacity="0.3" d="M149.618 267.624V256.914C149.72 254.925 150.292 252.988 151.287 251.262C152.283 249.537 153.673 248.072 155.344 246.988L479.934 59.57C480.508 59.1541 481.182 58.8964 481.887 58.8227C482.592 58.749 483.304 58.8619 483.952 59.15L471.576 51.576C470.913 51.2381 470.168 51.0919 469.426 51.1537C468.684 51.2156 467.974 51.483 467.376 51.926L142.8 239.4C141.127 240.486 139.736 241.953 138.74 243.681C137.745 245.409 137.174 247.348 137.074 249.34V260.05V260.47L149.576 267.68L149.618 267.624Z" fill="white"/>
<path opacity="0.2" d="M149.646 286.258L149.59 267.666L137.088 260.456L137.144 278.628V279.048L149.646 286.258Z" fill="#E0E0E0"/>
<path d="M479.934 59.57C483.098 57.736 485.688 59.22 485.688 62.86V73.584L149.618 267.624V256.914C149.72 254.925 150.292 252.988 151.287 251.262C152.283 249.537 153.673 248.072 155.344 246.988L479.934 59.57Z" fill="#FF725E"/>
<path d="M458.164 77.2941C459.872 76.3141 461.244 77.0981 461.258 79.0581C461.199 80.121 460.89 81.155 460.358 82.0767C459.825 82.9984 459.083 83.7819 458.192 84.3641C456.498 85.3441 455.112 84.5461 455.112 82.6001C455.165 81.5375 455.47 80.5026 456 79.5803C456.531 78.658 457.272 77.8745 458.164 77.2941Z" fill="white"/>
<path d="M467.6 71.876C469.294 70.896 470.68 71.694 470.694 73.64C470.632 74.7054 470.319 75.741 469.781 76.6629C469.244 77.5848 468.497 78.367 467.6 78.946C465.892 79.926 464.52 79.142 464.506 77.182C464.569 76.1167 464.881 75.0811 465.419 74.1592C465.956 73.2373 466.704 72.4551 467.6 71.876Z" fill="white"/>
<path d="M476.91 66.4721C478.618 65.4921 479.99 66.2761 480.004 68.2361C479.945 69.2989 479.636 70.3329 479.104 71.2546C478.571 72.1763 477.829 72.9599 476.938 73.5421C475.244 74.5221 473.858 73.7241 473.844 71.7781C473.903 70.7152 474.212 69.6812 474.744 68.7595C475.277 67.8378 476.019 67.0543 476.91 66.4721Z" fill="white"/>
<path d="M217.224 217.98C218.484 217.252 219.66 217.364 220.262 218.302L223.314 223.006C223.916 223.944 225.078 224.084 226.352 223.342L485.688 73.6121V92.2461L149.646 286.286V267.666L159.6 261.912C161.014 261.004 162.083 259.648 162.638 258.062L165.648 249.872C166.202 248.293 167.266 246.943 168.672 246.036L217.224 217.98Z" fill="#E6E6E6"/>
<path d="M485.8 92.218L486.402 307.636C486.3 309.625 485.728 311.562 484.733 313.288C483.737 315.013 482.347 316.478 480.676 317.562L156.016 504.966C152.838 506.8 150.262 505.33 150.248 501.69L149.646 286.258L485.8 92.218Z" fill="#F5F5F5"/>
<path d="M472.444 85.064C474.698 83.762 476.532 84.798 476.532 87.388C476.452 88.7915 476.043 90.1564 475.337 91.3724C474.632 92.5885 473.65 93.6215 472.472 94.388L187.978 258.692C185.71 260.008 183.876 258.958 183.876 256.368C183.957 254.963 184.368 253.597 185.076 252.381C185.783 251.164 186.768 250.132 187.95 249.368L472.444 85.064Z" fill="white"/>
<path d="M155.022 269.318C155.083 269.275 155.157 269.251 155.232 269.251C155.307 269.251 155.381 269.275 155.442 269.318C155.652 269.458 155.638 269.892 155.442 270.27L153.636 273.196L158.354 270.48C158.676 270.298 158.928 270.48 158.928 270.802C158.917 271.003 158.859 271.199 158.759 271.373C158.66 271.548 158.521 271.698 158.354 271.81L153.65 274.526L155.456 275.38C155.68 275.492 155.708 275.898 155.456 276.29C155.358 276.474 155.213 276.628 155.036 276.738C154.975 276.767 154.908 276.782 154.84 276.782C154.772 276.782 154.705 276.767 154.644 276.738L151.76 275.338L151.634 275.226V275.002V274.708L151.746 274.47L154.546 269.766C154.662 269.577 154.826 269.422 155.022 269.318Z" fill="#E6E6E6"/>
<path d="M165.2 263.438C165.263 263.405 165.332 263.388 165.403 263.388C165.474 263.388 165.543 263.405 165.606 263.438L168.49 264.838L168.602 264.964V265.202V265.496L168.504 265.72L165.62 270.452C165.523 270.612 165.388 270.747 165.228 270.844C165.164 270.881 165.092 270.9 165.018 270.9C164.944 270.9 164.872 270.881 164.808 270.844C164.598 270.704 164.612 270.284 164.808 269.892L166.6 266.98L161.896 269.696C161.574 269.878 161.322 269.696 161.322 269.36C161.334 269.165 161.39 268.975 161.488 268.805C161.585 268.635 161.72 268.489 161.882 268.38L166.6 265.664L164.794 264.81C164.556 264.698 164.556 264.278 164.794 263.886C164.887 263.704 165.028 263.549 165.2 263.438Z" fill="#E6E6E6"/>
<path d="M174.888 257.838C175.172 257.651 175.491 257.523 175.825 257.463C176.16 257.403 176.503 257.411 176.834 257.488L177.268 256.914C177.352 256.799 177.457 256.699 177.576 256.62C177.67 256.567 177.777 256.543 177.884 256.55C178.08 256.55 178.178 256.788 178.15 257.068L177.912 258.846C177.879 259.06 177.793 259.263 177.66 259.434C177.568 259.543 177.465 259.641 177.352 259.728H177.198L175.798 260.12C175.75 260.135 175.699 260.139 175.649 260.131C175.6 260.124 175.552 260.105 175.511 260.077C175.469 260.049 175.434 260.012 175.409 259.968C175.383 259.925 175.368 259.876 175.364 259.826C175.351 259.683 175.366 259.539 175.409 259.402C175.453 259.265 175.523 259.138 175.616 259.028L175.756 258.832C175.443 258.847 175.138 258.943 174.874 259.112C174.276 259.505 173.778 260.032 173.421 260.652C173.063 261.272 172.856 261.968 172.816 262.682C172.816 263.998 173.754 264.516 174.888 263.872C175.728 263.331 176.368 262.529 176.708 261.59C176.795 261.327 176.974 261.103 177.212 260.96C177.291 260.907 177.383 260.878 177.478 260.876C177.758 260.876 177.87 261.24 177.716 261.646C177.2 263.104 176.215 264.349 174.916 265.188C173.152 266.21 171.696 265.384 171.696 263.34C171.756 262.236 172.076 261.162 172.631 260.206C173.186 259.249 173.959 258.438 174.888 257.838Z" fill="#E6E6E6"/>
<g opacity="0.3">
<path opacity="0.3" d="M155.022 269.318C155.083 269.275 155.157 269.251 155.232 269.251C155.307 269.251 155.381 269.275 155.442 269.318C155.652 269.458 155.638 269.892 155.442 270.27L153.636 273.196L158.354 270.48C158.676 270.298 158.928 270.48 158.928 270.802C158.917 271.003 158.859 271.199 158.759 271.373C158.66 271.548 158.521 271.698 158.354 271.81L153.65 274.526L155.456 275.38C155.68 275.492 155.708 275.898 155.456 276.29C155.358 276.474 155.213 276.628 155.036 276.738C154.975 276.767 154.908 276.782 154.84 276.782C154.772 276.782 154.705 276.767 154.644 276.738L151.76 275.338L151.634 275.226V275.002V274.708L151.746 274.47L154.546 269.766C154.662 269.577 154.826 269.422 155.022 269.318Z" fill="black"/>
</g>
<g opacity="0.3">
<path opacity="0.3" d="M165.2 263.438C165.263 263.405 165.332 263.388 165.403 263.388C165.474 263.388 165.543 263.405 165.606 263.438L168.49 264.838L168.602 264.964V265.202V265.496L168.504 265.72L165.62 270.452C165.523 270.612 165.388 270.747 165.228 270.844C165.164 270.881 165.092 270.9 165.018 270.9C164.944 270.9 164.872 270.881 164.808 270.844C164.598 270.704 164.612 270.284 164.808 269.892L166.6 266.98L161.896 269.696C161.574 269.878 161.322 269.696 161.322 269.36C161.334 269.165 161.39 268.975 161.488 268.805C161.585 268.635 161.72 268.489 161.882 268.38L166.6 265.664L164.794 264.81C164.556 264.698 164.556 264.278 164.794 263.886C164.887 263.704 165.028 263.549 165.2 263.438Z" fill="black"/>
</g>
<g opacity="0.3">
<path opacity="0.3" d="M174.888 257.838C175.172 257.651 175.491 257.523 175.825 257.463C176.16 257.403 176.503 257.411 176.834 257.488L177.268 256.914C177.352 256.799 177.457 256.699 177.576 256.62C177.67 256.567 177.777 256.543 177.884 256.55C178.08 256.55 178.178 256.788 178.15 257.068L177.912 258.846C177.879 259.06 177.793 259.263 177.66 259.434C177.568 259.543 177.465 259.641 177.352 259.728H177.198L175.798 260.12C175.75 260.135 175.699 260.139 175.649 260.131C175.6 260.124 175.552 260.105 175.511 260.077C175.469 260.049 175.434 260.012 175.409 259.968C175.383 259.925 175.368 259.876 175.364 259.826C175.351 259.683 175.366 259.539 175.409 259.402C175.453 259.265 175.523 259.138 175.616 259.028L175.756 258.832C175.443 258.847 175.138 258.943 174.874 259.112C174.276 259.505 173.778 260.032 173.421 260.652C173.063 261.272 172.856 261.968 172.816 262.682C172.816 263.998 173.754 264.516 174.888 263.872C175.728 263.331 176.368 262.529 176.708 261.59C176.795 261.327 176.974 261.103 177.212 260.96C177.291 260.907 177.383 260.878 177.478 260.876C177.758 260.876 177.87 261.24 177.716 261.646C177.2 263.104 176.215 264.349 174.916 265.188C173.152 266.21 171.696 265.384 171.696 263.34C171.756 262.236 172.076 261.162 172.631 260.206C173.186 259.249 173.959 258.438 174.888 257.838Z" fill="black"/>
</g>
<path d="M232.344 312.886L232.358 317.534L168.546 354.382L168.532 349.734L232.344 312.886Z" fill="#E6E6E6"/>
<path d="M310.828 259.14L310.842 263.788L168.518 345.954L168.504 341.32L310.828 259.14Z" fill="#E6E6E6"/>
<path d="M310.8 250.726L310.814 255.36L168.49 337.526L168.476 332.892L310.8 250.726Z" fill="#E6E6E6"/>
<path d="M310.772 242.298L310.786 246.946L168.462 329.112V324.464L310.772 242.298Z" fill="#E6E6E6"/>
<path d="M267.834 235.676L267.848 240.884L259.294 245.812L259.308 248.206L266.812 243.88L266.826 248.822L259.322 253.148L259.336 255.836L268.198 250.726L268.212 255.906L253.456 264.432L253.4 244.02L267.834 235.676Z" fill="#37474F"/>
<path d="M251.846 244.916L251.86 250.25L246.652 253.26L246.694 268.324L240.716 271.782L240.674 256.718L235.466 259.714L235.452 254.38L251.846 244.916Z" fill="#37474F"/>
<path d="M223.608 275.352L227.346 279.552L220.962 283.248L217.924 279.86L216.3 280.798V285.922L210.308 289.38V268.982L218.862 264.04C223.818 261.24 226.954 262.346 226.968 267.064C226.878 270.14 225.685 273.081 223.608 275.352ZM218.47 274.288C219.185 273.941 219.79 273.403 220.217 272.733C220.645 272.064 220.878 271.289 220.892 270.494C220.892 269.01 220.108 268.548 218.456 269.5L216.272 270.76V275.548L218.456 274.288" fill="#37474F"/>
<path d="M207.522 270.508V281.708C207.537 284.699 206.744 287.639 205.226 290.217C203.708 292.795 201.521 294.914 198.898 296.352C193.452 299.502 190.232 297.822 190.218 291.69V280.49L196.196 277.046V288.064C196.196 291.186 197.26 291.746 198.996 290.78C200.732 289.814 201.698 288.05 201.698 284.928V273.91L207.522 270.508Z" fill="#37474F"/>
<path d="M178.164 287C183.946 283.668 188.188 285.712 188.202 291.886C188.216 298.06 184.002 305.018 178.22 308.35C172.438 311.682 168.182 309.652 168.154 303.464C168.126 297.276 172.368 290.332 178.164 287ZM178.164 302.778C179.393 301.975 180.399 300.876 181.092 299.582C181.784 298.287 182.14 296.84 182.126 295.372C182.126 292.194 180.334 291.298 178.136 292.572C176.902 293.371 175.89 294.469 175.195 295.764C174.5 297.059 174.144 298.508 174.16 299.978C174.16 303.17 175.938 304.052 178.164 302.778Z" fill="#37474F"/>
<path d="M282.198 227.388L290.024 243.32L283.836 246.89L282.632 244.09L275.87 247.996L274.694 252.196L268.604 255.71L276.318 230.818L282.198 227.388ZM277.508 242.018L280.966 240.03L279.23 235.83L277.508 241.962" fill="#37474F"/>
<path d="M312.2 210.07L312.312 230.454L306.852 233.604L306.768 224.322L302.946 234.024L300.3 235.55L296.422 230.622L296.45 239.61L290.99 242.76L290.934 222.348L295.848 219.506L301.672 227.052L307.286 212.912L312.2 210.07Z" fill="#37474F"/>
<path d="M352.31 266.462L352.618 376.334L246.526 437.584L246.218 327.712L352.31 266.462Z" fill="#FF725E"/>
<path d="M472.234 117.04L472.416 178.948L328.972 261.758L328.79 199.85L472.234 117.04Z" fill="#FF725E"/>
<path d="M235.872 333.69L236.18 443.562L168.91 482.398L168.588 372.54L235.872 333.69Z" fill="#455A64"/>
<path d="M471.338 197.736L471.646 307.608L362.978 370.356L362.67 260.484L471.338 197.736Z" fill="#455A64"/>
<path opacity="0.4" d="M235.872 333.69L236.18 443.562L168.91 482.398L168.588 372.54L235.872 333.69Z" fill="white"/>
<path opacity="0.4" d="M471.338 197.736L471.646 307.608L362.978 370.356L362.67 260.484L471.338 197.736Z" fill="white"/>
<path d="M380.352 180.922L380.366 188.258L339.738 211.778L339.71 204.442L380.352 180.922Z" fill="#FF725E"/>
<path d="M390.446 187.082L390.46 191.548L339.766 220.724L339.752 216.258L390.446 187.082Z" fill="#FF725E"/>
<g opacity="0.3">
<path opacity="0.3" d="M380.352 180.922L380.366 188.258L339.738 211.778L339.71 204.442L380.352 180.922Z" fill="white"/>
<path opacity="0.3" d="M390.446 187.082L390.46 191.548L339.766 220.724L339.752 216.258L390.446 187.082Z" fill="white"/>
<path opacity="0.3" d="M381.724 218.68L381.738 223.174L339.836 247.618L339.822 243.138L381.724 218.68Z" fill="white"/>
<path opacity="0.3" d="M390.502 205.002L390.516 209.482L339.808 238.658L339.794 234.178L390.502 205.002Z" fill="white"/>
<path opacity="0.3" d="M363.482 211.526L363.496 216.006L339.78 229.698L339.766 225.218L363.482 211.526Z" fill="white"/>
</g>
<path d="M202.342 363.664L202.37 370.37L176.442 385.336L176.428 378.63L202.342 363.664Z" fill="#455A64"/>
<path d="M228.158 359.506L228.172 362.656L176.47 392.518L176.456 389.354L228.158 359.506Z" fill="#455A64"/>
<path d="M228.186 365.82V368.97L176.484 398.832V395.668L228.186 365.82Z" fill="#455A64"/>
<path d="M213.192 389.592L213.22 396.298L176.54 417.48L176.526 410.774L213.192 389.592Z" fill="#455A64"/>
<path d="M202.342 387.058L202.356 390.208L176.498 405.132V401.982L202.342 387.058Z" fill="#455A64"/>
<path d="M190.638 458.206V461.356L176.68 469.42V466.27L190.638 458.206Z" fill="#455A64"/>
<g opacity="0.8">
<path opacity="0.8" d="M202.342 363.664L202.37 370.37L176.442 385.336L176.428 378.63L202.342 363.664Z" fill="white"/>
<path opacity="0.8" d="M228.158 359.506L228.172 362.656L176.47 392.518L176.456 389.354L228.158 359.506Z" fill="white"/>
<path opacity="0.8" d="M228.186 365.82V368.97L176.484 398.832V395.668L228.186 365.82Z" fill="white"/>
<path opacity="0.8" d="M213.192 389.592L213.22 396.298L176.54 417.48L176.526 410.774L213.192 389.592Z" fill="white"/>
<path opacity="0.8" d="M202.342 387.058L202.356 390.208L176.498 405.132V401.982L202.342 387.058Z" fill="white"/>
<path opacity="0.8" d="M190.638 458.206V461.356L176.68 469.42V466.27L190.638 458.206Z" fill="white"/>
<path opacity="0.8" d="M228.368 430.108V433.258L176.666 463.106V459.956L228.368 430.108Z" fill="white"/>
<path opacity="0.8" d="M228.34 423.794L228.354 426.944L176.652 456.806L176.638 453.642L228.34 423.794Z" fill="white"/>
<path opacity="0.8" d="M199.08 429.954L199.094 436.646L176.624 449.61L176.61 442.918L199.08 429.954Z" fill="white"/>
<path opacity="0.8" d="M219.1 409.584V412.734L176.596 437.276L176.582 434.112L219.1 409.584Z" fill="white"/>
<path opacity="0.8" d="M228.27 397.95L228.284 401.114L176.582 430.962L176.568 427.812L228.27 397.95Z" fill="white"/>
<path opacity="0.8" d="M228.256 391.65L228.27 394.814L176.554 424.662V421.498L228.256 391.65Z" fill="white"/>
</g>
<path d="M314.188 321.902L293.118 361.928L287.154 373.268L291.256 360.5L279.65 351.484L266.7 377.188L266.742 392.882L334.642 353.682L334.6 337.974L314.188 321.902Z" fill="#FF725E"/>
<path d="M291.928 343.126C293.607 342.03 295.004 340.554 296.006 338.817C297.008 337.08 297.587 335.132 297.696 333.13C297.696 329.462 295.078 327.978 291.886 329.826C290.204 330.916 288.805 332.389 287.802 334.124C286.8 335.859 286.223 337.807 286.118 339.808C286.132 343.49 288.722 344.96 291.928 343.126Z" fill="#FF725E"/>
<g opacity="0.3">
<path opacity="0.3" d="M314.188 321.902L293.118 361.928L287.154 373.268L291.256 360.5L279.65 351.484L266.7 377.188L266.742 392.882L334.642 353.682L334.6 337.974L314.188 321.902Z" fill="white"/>
<path opacity="0.3" d="M291.928 343.126C293.607 342.03 295.004 340.554 296.006 338.817C297.008 337.08 297.587 335.132 297.696 333.13C297.696 329.462 295.078 327.978 291.886 329.826C290.204 330.916 288.805 332.389 287.802 334.124C286.8 335.859 286.223 337.807 286.118 339.808C286.132 343.49 288.722 344.96 291.928 343.126Z" fill="white"/>
</g>
<path d="M434.35 253.834L413.28 293.86L407.316 305.2L411.418 292.432L399.798 283.416L386.862 309.12L386.904 324.814L454.804 285.614L454.762 269.906L434.35 253.834Z" fill="#455A64"/>
<path d="M412.076 275.058C413.759 273.966 415.159 272.491 416.161 270.753C417.164 269.016 417.74 267.065 417.844 265.062C417.844 261.394 415.24 259.91 412.048 261.758C410.362 262.843 408.959 264.315 407.955 266.051C406.952 267.787 406.378 269.737 406.28 271.74C406.28 275.422 408.884 276.892 412.076 275.058Z" fill="#455A64"/>
<g opacity="0.8">
<path opacity="0.8" d="M434.35 253.834L413.28 293.86L407.316 305.2L411.418 292.432L399.798 283.416L386.862 309.12L386.904 324.814L454.804 285.614L454.762 269.906L434.35 253.834Z" fill="white"/>
<path opacity="0.8" d="M412.076 275.058C413.759 273.966 415.159 272.491 416.161 270.753C417.164 269.016 417.741 267.065 417.844 265.062C417.844 261.394 415.24 259.91 412.048 261.758C410.362 262.843 408.959 264.315 407.956 266.051C406.952 267.787 406.378 269.737 406.28 271.74C406.28 275.422 408.884 276.892 412.076 275.058Z" fill="white"/>
</g>
<path d="M381.724 218.68L381.738 223.174L339.836 247.618L339.822 243.138L381.724 218.68Z" fill="#FF725E"/>
<path d="M390.502 205.002L390.516 209.482L339.808 238.658L339.794 234.178L390.502 205.002Z" fill="#FF725E"/>
<path d="M363.482 211.526L363.496 216.006L339.78 229.698L339.766 225.218L363.482 211.526Z" fill="#FF725E"/>
<path d="M228.368 430.108V433.258L176.666 463.106V459.956L228.368 430.108Z" fill="#455A64"/>
<path d="M228.34 423.794L228.354 426.944L176.652 456.806L176.638 453.642L228.34 423.794Z" fill="#455A64"/>
<path d="M199.08 429.954L199.094 436.646L176.624 449.61L176.61 442.918L199.08 429.954Z" fill="#455A64"/>
<path d="M219.1 409.584V412.734L176.596 437.276L176.582 434.112L219.1 409.584Z" fill="#455A64"/>
<path d="M228.27 397.95L228.284 401.114L176.582 430.962L176.568 427.812L228.27 397.95Z" fill="#455A64"/>
<path d="M228.256 391.65L228.27 394.814L176.554 424.662V421.498L228.256 391.65Z" fill="#455A64"/>
<path d="M463.596 173.11L459.676 175.364L462.028 212.17L465.766 234.136L478.632 235.634L473.368 212.17L467.418 173.32L463.596 173.11Z" fill="#FFCAC9"/>
<path d="M464.59 231.448C473.466 228.13 479.262 232.848 479.262 232.848L480.662 270.494L464.828 261.436L464.59 231.448Z" fill="#FF725E"/>
<path d="M464.59 231.448C473.466 228.13 479.262 232.848 479.262 232.848L480.662 270.494L464.828 261.436L464.59 231.448Z" fill="#455A64"/>
<path opacity="0.1" d="M464.59 231.448C473.466 228.13 479.262 232.848 479.262 232.848L480.662 270.494L464.828 261.436L464.59 231.448Z" fill="white"/>
<path d="M454.916 136.122L412.986 160.328L413.084 192.374L455.014 168.168L454.916 136.122Z" fill="#FF725E"/>
<path d="M454.916 136.122L455.014 168.168L458.892 170.422L458.794 133.882L454.916 136.122Z" fill="#FF725E"/>
<path d="M413.084 192.374L413.098 196.868L458.892 170.422L455.014 168.168L413.084 192.374Z" fill="#FF725E"/>
<path d="M463.47 125.79L408.282 157.654L408.422 204.974L463.596 173.11L463.47 125.79ZM413.07 196.868V192.374L413 160.328L454.93 136.122L458.808 133.882L458.906 170.422L413.07 196.868Z" fill="#FF725E"/>
<path d="M463.47 125.79L459.578 123.536L404.404 155.4L408.282 157.654L463.47 125.79Z" fill="#FF725E"/>
<path d="M404.404 155.4L404.53 202.706L408.422 204.974L408.282 157.654L404.404 155.4Z" fill="#FF725E"/>
<path d="M412.986 160.328L454.916 136.122L455.014 168.168L413.084 192.374L412.986 160.328Z" fill="#FF725E"/>
<path d="M441.602 148.288L453.026 157.29L453.054 166.082L415.03 188.048L415.002 179.242L422.254 164.85L428.75 169.904L426.454 177.058L429.8 170.702L441.602 148.288Z" fill="#FF725E"/>
<path d="M429.1 152.726C430.892 151.69 432.348 152.516 432.362 154.574C432.302 155.696 431.977 156.788 431.415 157.761C430.853 158.734 430.07 159.561 429.128 160.174C427.336 161.21 425.88 160.37 425.88 158.312C425.937 157.193 426.258 156.103 426.818 155.132C427.377 154.16 428.16 153.336 429.1 152.726Z" fill="#FF725E"/>
<path opacity="0.5" d="M454.916 136.122L455.014 168.168L458.892 170.422L458.794 133.882L454.916 136.122Z" fill="white"/>
<path opacity="0.8" d="M413.084 192.374L413.098 196.868L458.892 170.422L455.014 168.168L413.084 192.374Z" fill="white"/>
<path opacity="0.7" d="M463.47 125.79L408.282 157.654L408.422 204.974L463.596 173.11L463.47 125.79ZM413.07 196.868V192.374L413 160.328L454.93 136.122L458.808 133.882L458.906 170.422L413.07 196.868Z" fill="white"/>
<path opacity="0.9" d="M463.47 125.79L459.578 123.536L404.404 155.4L408.282 157.654L463.47 125.79Z" fill="white"/>
<path opacity="0.5" d="M404.404 155.4L404.53 202.706L408.422 204.974L408.282 157.654L404.404 155.4Z" fill="white"/>
<path opacity="0.6" d="M454.916 136.122L413 160.328L413.098 192.374L455 168.168L454.916 136.122ZM429.1 152.726C430.892 151.69 432.348 152.516 432.362 154.574C432.302 155.696 431.977 156.788 431.415 157.761C430.853 158.734 430.07 159.561 429.128 160.174C427.336 161.21 425.88 160.37 425.88 158.312C425.937 157.193 426.258 156.103 426.818 155.131C427.377 154.16 428.16 153.336 429.1 152.726ZM415.03 188.048V179.256L422.282 164.85L428.778 169.904L426.482 177.058L429.828 170.702L441.63 148.302L453.054 157.304V166.096L415.03 188.048Z" fill="white"/>
<path opacity="0.3" d="M441.602 148.288L429.8 170.702L426.454 177.058L428.75 169.904L422.254 164.85L415.002 179.242L415.03 188.048L453.054 166.082L453.026 157.29L441.602 148.288Z" fill="white"/>
<path opacity="0.3" d="M429.128 160.174C430.07 159.561 430.853 158.734 431.415 157.761C431.977 156.788 432.302 155.696 432.362 154.574C432.362 152.516 430.892 151.69 429.1 152.726C428.158 153.337 427.375 154.164 426.815 155.138C426.255 156.111 425.934 157.204 425.88 158.326C425.88 160.37 427.336 161.21 429.128 160.174Z" fill="white"/>
<path d="M425.712 243.11L418.488 233.8L410.452 195.874C410.234 194.859 410.321 193.802 410.704 192.836L411.684 190.414C412.188 189.136 412.427 187.769 412.384 186.396L412.216 181.076C412.198 180.656 412.02 180.259 411.717 179.968C411.415 179.676 411.012 179.511 410.592 179.508C410.213 179.508 409.845 179.642 409.554 179.884C409.262 180.127 409.065 180.465 408.996 180.838L408.17 185.458L406.21 187.698L404.446 181.384V173.32L400.47 179.088C399.404 180.637 398.978 182.538 399.28 184.394L400.946 194.488L405.048 236.026C405.468 240.259 407.112 244.277 409.78 247.59L414.274 253.19L425.712 243.11Z" fill="#FFCAC9"/>
<path d="M448.14 464.212C447.643 465.365 446.824 466.351 445.781 467.051C444.738 467.751 443.516 468.136 442.26 468.16C439.756 468.163 437.262 467.843 434.84 467.208C429.338 466.214 424.018 467.208 418.516 467.068C416.713 467.082 414.914 466.889 413.154 466.494C411.381 466.081 409.778 465.133 408.562 463.778C407.88 462.978 407.421 462.012 407.232 460.978C407.118 461.776 407.178 462.59 407.407 463.363C407.637 464.137 408.031 464.851 408.562 465.458C409.778 466.813 411.381 467.761 413.154 468.174C414.914 468.569 416.713 468.762 418.516 468.748C424.018 468.888 429.338 467.894 434.84 468.888C437.262 469.523 439.756 469.843 442.26 469.84C443.516 469.816 444.738 469.431 445.781 468.731C446.824 468.031 447.643 467.045 448.14 465.892C448.368 465.068 448.43 464.206 448.322 463.358C448.285 463.647 448.224 463.933 448.14 464.212Z" fill="#455A64"/>
<path d="M448 459.648L446.992 454.636C446.867 453.741 446.578 452.877 446.138 452.088C445.917 451.694 445.594 451.367 445.202 451.143C444.809 450.918 444.364 450.805 443.912 450.814C440.888 450.408 436.646 449.316 434.112 451.038C430.147 453.751 425.418 455.125 420.616 454.958C418.136 454.665 415.636 454.567 413.14 454.664C410.662 454.958 408.086 456.344 407.344 458.724C407.142 459.434 407.099 460.18 407.218 460.908C407.407 461.942 407.866 462.908 408.548 463.708C409.764 465.063 411.367 466.011 413.14 466.424C414.9 466.819 416.699 467.012 418.502 466.998C424.004 467.124 429.324 466.144 434.826 467.138C437.248 467.773 439.742 468.093 442.246 468.09C443.502 468.066 444.724 467.681 445.767 466.981C446.81 466.281 447.629 465.295 448.126 464.142C448.214 463.84 448.275 463.531 448.308 463.218C448.393 462.019 448.289 460.814 448 459.648Z" fill="#455A64"/>
<path d="M433.398 445.788L433.174 452.312C433.151 452.983 433.389 453.637 433.838 454.135C434.287 454.634 434.912 454.939 435.582 454.986C437.767 455.161 439.963 455.161 442.148 454.986C443.034 454.898 443.86 454.498 444.479 453.856C445.097 453.215 445.467 452.375 445.522 451.486L445.774 446.67L433.398 445.788Z" fill="#FFCAC9"/>
<path d="M476 442.316C475.976 443.281 475.674 444.219 475.132 445.018C474.353 445.955 473.257 446.572 472.052 446.754C470.611 447 469.129 446.835 467.777 446.278C466.425 445.721 465.258 444.794 464.408 443.604C463.582 442.414 463.12 441.014 462.336 439.796C461.164 438.157 459.714 436.736 458.052 435.596C456.39 434.447 454.933 433.027 453.74 431.396C453.174 430.608 452.804 429.697 452.66 428.738C452.516 427.779 452.603 426.799 452.914 425.88C452.754 426.098 452.618 426.333 452.508 426.58C452.144 427.546 452.024 428.586 452.158 429.61C452.292 430.633 452.677 431.607 453.278 432.446C454.5 434.105 455.991 435.548 457.688 436.716C459.383 437.884 460.861 439.338 462.056 441.014C462.854 442.26 463.33 443.702 464.17 444.934C465.03 446.157 466.219 447.111 467.599 447.686C468.979 448.261 470.494 448.433 471.968 448.182C473.199 447.993 474.316 447.354 475.104 446.39C475.811 445.273 476.135 443.956 476.028 442.638C476 442.596 476 442.4 476 442.316Z" fill="#455A64"/>
<path d="M474.026 434.126C472.038 430.654 467.95 428.12 464.786 425.726C463.06 424.222 460.935 423.25 458.668 422.926C457.539 422.794 456.396 423 455.384 423.518C454.372 424.037 453.537 424.844 452.984 425.838C452.984 425.838 452.984 425.964 452.914 426.02C452.604 426.939 452.517 427.919 452.66 428.878C452.804 429.837 453.174 430.748 453.74 431.536C454.933 433.167 456.391 434.586 458.052 435.736C459.714 436.876 461.164 438.297 462.336 439.936C463.12 441.154 463.582 442.554 464.408 443.744C465.258 444.934 466.425 445.861 467.777 446.418C469.129 446.975 470.611 447.14 472.052 446.894C473.257 446.712 474.353 446.095 475.132 445.158C475.674 444.359 475.976 443.421 476 442.456C476 442.148 476 441.826 476 441.518C475.969 438.928 475.29 436.387 474.026 434.126Z" fill="#455A64"/>
<path d="M465.416 431.116V437.052C466.873 437.734 468.474 438.052 470.081 437.979C471.688 437.905 473.253 437.443 474.642 436.632L475.202 431.298L465.416 431.116Z" fill="#FFCAC9"/>
<path d="M476.756 323.512C478.534 328.86 476.35 354.2 475.356 378.518C479.206 387.716 478.156 413.812 475.944 432.334C475.944 432.334 472.094 434.714 465.122 432.334L456.4 381.192L455.182 352.282C455.182 352.282 452.984 377.93 450.464 394.38C452.83 406.98 452.242 409.36 446.39 448.126C444.355 449.147 442.109 449.679 439.831 449.679C437.554 449.679 435.308 449.147 433.272 448.126C429.954 393.666 431.172 344.036 431.802 326.186L476.756 323.512Z" fill="#FF725E"/>
<path opacity="0.5" d="M476.756 323.512C478.534 328.86 476.35 354.2 475.356 378.518C479.206 387.716 478.156 413.812 475.944 432.334C475.944 432.334 472.094 434.714 465.122 432.334L456.4 381.192L455.182 352.282C455.182 352.282 452.984 377.93 450.464 394.38C452.83 406.98 452.242 409.36 446.39 448.126C444.355 449.147 442.109 449.679 439.831 449.679C437.554 449.679 435.308 449.147 433.272 448.126C429.954 393.666 431.172 344.036 431.802 326.186L476.756 323.512Z" fill="black"/>
<path opacity="0.1" d="M476.756 323.512C478.534 328.86 476.35 354.2 475.356 378.518C479.206 387.716 478.156 413.812 475.944 432.334C475.944 432.334 472.094 434.714 465.122 432.334L456.4 381.192L455.182 352.282C455.182 352.282 452.984 377.93 450.464 394.38C452.83 406.98 452.242 409.36 446.39 448.126C444.355 449.147 442.109 449.679 439.831 449.679C437.554 449.679 435.308 449.147 433.272 448.126C429.954 393.666 431.172 344.036 431.802 326.186L476.756 323.512Z" fill="white"/>
<path opacity="0.3" d="M455.868 369.88L454.874 346.304C460.964 346.304 466.62 341.754 470.918 337.428C468.038 342.114 463.806 345.819 458.78 348.054L455.868 369.88Z" fill="black"/>
<path d="M430.808 327.6C457.996 338.996 475.608 328.706 478.016 323.4C476.756 304.612 481.208 282.618 480.816 273.28C480.424 263.942 479.374 253.4 464.884 255.5L449.484 256.998L441.672 258.902L432.306 278.362L430.808 327.6Z" fill="#455A64"/>
<path d="M464.884 248.122C465.982 248.189 467.063 247.822 467.894 247.1C468.208 246.755 468.437 246.34 468.561 245.89C468.685 245.44 468.701 244.967 468.608 244.51C469.066 244.424 469.495 244.226 469.857 243.933C470.219 243.639 470.502 243.26 470.68 242.83C470.819 242.358 470.848 241.86 470.766 241.375C470.683 240.89 470.491 240.43 470.204 240.03C470.864 239.858 471.479 239.547 472.008 239.117C472.537 238.687 472.967 238.149 473.27 237.538C473.577 236.909 473.746 236.221 473.768 235.521C473.79 234.822 473.663 234.125 473.396 233.478C474.122 233.286 474.786 232.911 475.326 232.389C475.865 231.867 476.261 231.215 476.476 230.496C476.705 229.748 476.745 228.956 476.593 228.189C476.442 227.422 476.104 226.705 475.608 226.1C476.231 225.265 476.622 224.28 476.742 223.245C476.863 222.21 476.708 221.162 476.294 220.206C475.814 219.248 475.095 218.43 474.208 217.829C473.32 217.229 472.294 216.866 471.226 216.776C471.374 215.772 471.27 214.748 470.923 213.794C470.576 212.841 469.997 211.989 469.238 211.316C468.473 210.676 467.558 210.24 466.579 210.049C465.599 209.858 464.588 209.918 463.638 210.224C463.288 209.388 462.732 208.654 462.023 208.09C461.314 207.526 460.474 207.15 459.58 206.996C458.687 206.843 457.77 206.917 456.913 207.212C456.056 207.507 455.287 208.013 454.678 208.684C454.236 208.17 453.673 207.773 453.041 207.529C452.408 207.285 451.725 207.201 451.052 207.284C450.369 207.347 449.713 207.577 449.139 207.953C448.566 208.329 448.093 208.839 447.762 209.44C446.903 209.05 445.959 208.887 445.019 208.968C444.079 209.048 443.176 209.369 442.396 209.899C441.616 210.428 440.985 211.15 440.564 211.994C440.143 212.838 439.946 213.776 439.992 214.718C439.303 214.919 438.7 215.342 438.277 215.922C437.854 216.502 437.635 217.206 437.654 217.924C437.716 218.658 438.01 219.354 438.493 219.91C438.976 220.466 439.624 220.854 440.342 221.018C441.702 228.394 444.136 235.53 447.566 242.2C449.092 245.168 450.968 248.178 453.922 249.718C457.128 251.412 462.154 250.46 464.884 248.122Z" fill="#37474F"/>
<path d="M439.25 230.72L436.058 236.264L439.544 237.566L439.25 230.72Z" fill="#FFA8A7"/>
<path d="M440.342 221.074C438.222 228.752 437.911 236.817 439.432 244.636C439.578 245.975 440.06 247.256 440.832 248.36C441.89 249.488 443.347 250.156 444.892 250.222C446.417 250.28 447.942 250.134 449.428 249.788V256.998C454.902 258.286 460.544 258.804 464.828 255.5V248.122C461.738 249.106 458.453 249.308 455.266 248.71C451.486 246.666 450.73 239.764 451.262 237.944C451.595 238.391 452.055 238.729 452.581 238.913C453.107 239.098 453.677 239.121 454.216 238.98C454.736 238.838 455.223 238.592 455.646 238.258C456.069 237.923 456.421 237.507 456.68 237.034C457.179 236.075 457.488 235.03 457.59 233.954C457.859 232.658 457.661 231.309 457.03 230.146C456.539 229.51 455.868 229.036 455.104 228.786C454.34 228.536 453.518 228.522 452.746 228.746C451.192 229.241 449.895 230.327 449.134 231.77C448.892 232.222 448.682 232.689 448.504 233.17C448.438 233.352 448.312 233.506 448.146 233.606C447.981 233.707 447.786 233.748 447.594 233.724C447.402 233.699 447.224 233.611 447.09 233.472C446.955 233.333 446.871 233.153 446.852 232.96C446.649 230.84 447.047 228.705 448 226.8C447.376 226.736 446.774 226.533 446.239 226.206C445.703 225.879 445.248 225.436 444.906 224.91C444.546 224.416 444.306 223.846 444.204 223.243C444.102 222.641 444.141 222.023 444.318 221.438C442.982 221.545 441.637 221.422 440.342 221.074Z" fill="#FFCAC9"/>
<path d="M441.672 258.902L425.054 239.904C415.506 242.242 410.116 252.154 410.116 252.154L432.306 278.362C448.574 284.76 441.672 258.902 441.672 258.902Z" fill="#FF725E"/>
<path d="M462.21 173.908L460.992 169.162L459.718 163.436C459.623 163.082 459.671 162.704 459.852 162.384C460.032 162.065 460.331 161.829 460.684 161.728C460.866 161.658 461.06 161.627 461.254 161.637C461.448 161.646 461.638 161.696 461.812 161.783C461.985 161.87 462.139 161.992 462.263 162.142C462.387 162.291 462.479 162.465 462.532 162.652L463.596 165.76V156.982L467.264 163.534C467.808 164.521 468.051 165.645 467.964 166.768L467.418 173.32L462.21 173.908Z" fill="#FFCAC9"/>
<path d="M441.672 258.902L425.054 239.904C415.506 242.242 410.116 252.154 410.116 252.154L432.306 278.362C448.574 284.76 441.672 258.902 441.672 258.902Z" fill="#455A64"/>
<path opacity="0.1" d="M441.672 258.902L425.054 239.904C415.506 242.242 410.116 252.154 410.116 252.154L432.306 278.362C448.574 284.76 441.672 258.902 441.672 258.902Z" fill="white"/>
</svg>
